<svg version="1.1" id="svg2" xmlns="http://www.w3.org/2000/svg" xmlns:xlink="http://www.w3.org/1999/xlink" x="0" y="0" viewBox="0 0 672 96" xml:space="preserve"><style>.st1{fill:#3ec2f1}.st2{fill:#1a1a1a}</style><g id="g12"><defs><path id="SVGID_1_" d="M0 0h672v96H0z"/></defs><clipPath id="SVGID_2_"><use xlink:href="#SVGID_1_" overflow="visible"/></clipPath><g id="g14" clip-path="url(#SVGID_2_)"><g id="g20" transform="translate(224.195 69.658)"><path id="path22" class="st1" d="M74.7-66.5H83V7.9c0 4.3 3.6 7.9 7.9 7.9h34.8v7.6h-36c-8.3 0-14.9-6.8-14.9-14.9v-75z"/></g><g id="g24" transform="translate(312.059 35.884)"><path id="path26" class="st1" d="M104 12.3c0-23.7-11.5-37.7-27.6-37.7-16 0-27.6 13.9-27.6 37.7 0 23.7 11.5 37.8 27.6 37.8S104 36 104 12.3m-63.2 0C40.8-15.2 55.7-33 76.4-33 97.1-33 112-15 112 12.3S97.1 57.6 76.4 57.6c-20.7 0-35.6-17.9-35.6-45.3"/></g><g id="g28" transform="translate(371.03 14.214)"><path id="path30" class="st1" d="M123.7 62.8C120.1 71.4 109 79.3 96 79.3c-22.1 0-34.8-19.5-34.8-45.7 0-27.5 14.8-45 35.4-45 16 0 26.4 9.3 30.8 26.7l-7.8 1.9c-4-14.4-10.5-21-23.1-21-14.7 0-27.2 12.4-27.2 36.9 0 24.4 11.1 38.5 27.3 38.5 14.2 0 23.6-10.2 23.4-28H99.5v-7.2h28.3c.2 14.6-2.1 21.5-4.1 26.4"/></g><path id="path32" class="st1" d="M510.6 3.1h8.3v90.1h-8.3V3.1z"/><g id="g34" transform="translate(396.875 36.1)"><path id="path36" class="st1" d="M132.3 11.8c0-26.4 14.1-45 35.2-45 17.1 0 26.6 10.5 30.6 26.7l-7.8 2c-3.7-13.8-10.1-21-23-21-16.4 0-27 14.7-27 37.1 0 24.1 10.8 38.4 27.2 38.4 12.6 0 20.4-7.6 24.1-22.1l7.8 1.7c-4.2 17.2-15.1 28-32.1 28-21.2-.1-35-17.9-35-45.8"/></g><g id="g38" transform="translate(453.612 22.174)"><path id="path40" class="st1" d="M151.2 44.3l7.2-2.7c3.7 12.2 11 22.4 23 22.4 12.6 0 21-6 21-15.8 0-9.1-4.2-13.7-22.1-19.5-18.3-5.9-27.5-10.9-27.5-25.4 0-12.5 10.9-22.4 26.3-22.4 16 0 25 8.3 29 20.1l-6.9 3.3c-4.2-11.4-11.6-15.8-22.3-15.8-11.4 0-18.3 6.3-18.3 14.2 0 9.8 5.6 13.1 23.4 19 17.7 5.8 26.3 11.8 26.3 26 0 14.5-12.5 23.9-29.5 23.9-15.8-.2-25.7-13.3-29.6-27.3"/></g><g transform="translate(30.6 17.174)" id="g42"><path id="path44_8_" class="st2" d="M10.2 55.9H-3c-.9 0-1.6-.7-1.6-1.6v-14h14.8c6 0 8 4 8 7.8s-2 7.8-8 7.8m-14.8-50H9.2c6 0 7.9 3.7 7.9 7.3 0 3.4-1.9 7.3-7.9 7.3H-4.5V5.9h-.1zm33.8 24C31.9 28 39 22.4 39 12.2c0-15.5-9.9-25.9-28.5-25.9h-37.1v72.3c0 9.5 7.8 17.2 17.2 17.2h21.7c16 0 27.9-9.3 27.9-26.4 0-12.6-7.3-17.3-11-19.5"/></g><g transform="translate(90.218 19.438)" id="g46"><path id="path48_8_" class="st2" d="M30.1 50.6c-1.6 2.2-4.7 4-8.8 4-4 0-7.2-1.9-8.8-4-2-2.6-3.3-5.5-3.3-21.8s1.3-19.4 3.3-22c1.6-2.2 4.7-3.9 8.8-3.9 4 0 7.2 1.7 8.8 3.9 2 2.6 3.3 5.6 3.3 22s-1.3 19.1-3.3 21.8M46.3-6.7c-6.5-6.5-14.1-10.1-25-10.1S2.8-13.4-3.7-6.7c-9.5 9.5-9.1 22-9.1 35.5s-.4 26 9.1 35.5c6.5 6.5 14.1 10.1 25 10.1s18.5-3.4 25-10.1c9.5-9.5 9.1-22 9.1-35.5s.4-26.2-9.1-35.5"/></g><g transform="translate(148.758 41)" id="g50"><path id="path52_8_" class="st2" d="M49.6.3c-2.7-1.1-6-2.3-9.5-3.4-5-1.7-10.8-3.7-13.5-5.2-1-.6-1.9-1.4-2.3-2.9-1.2-3.6 2.4-6.3 7.3-6.3h1.7c4.2 0 8.9 1.1 12.4 2.9 1.7.9 3 1.9 3 1.9l14.4-14.4-.4-.4c-4.5-3.7-9.5-6.6-15.1-8.5-4.6-1.3-9.8-2.2-14.2-2.2h-1.7c-16.2 0-28 11.4-28 27 0 9.3 6.8 17.4 12.9 20.8 4.3 2.4 10.6 4.6 16.8 6.8 3.2 1.1 6.2 2.2 8.5 3 3.2 1.3 4.6 3.4 4.5 6.3-.3 3.7-5 6.3-10.2 6.3h-1.3c-5.8 0-11.4-1.2-16.1-4.2-2-1.3-3-2-3-2L1.3 40.3l.4.4C4 43 7 45.2 10.3 47.1c8.3 4.6 18.5 5.7 25 5.7h3c5.2-.4 9.3-1.9 13.7-3.9 8.8-4.7 14.4-12.9 14.8-21.8v-1.9C66.5 13.7 60.2 4.6 49.6.3"/></g><g transform="translate(201.369 41)" id="g54"><path id="path56_8_" class="st2" d="M67.1.3c-2.7-1.1-6-2.3-9.5-3.4-5-1.7-10.8-3.7-13.5-5.2-1-.6-1.9-1.4-2.3-2.9-1.2-3.6 2.4-6.3 7.3-6.3h1.7c4.2 0 8.9 1.1 12.4 2.9 1.7.9 3 1.9 3 1.9l14.4-14.4-.4-.4c-4.5-3.7-9.5-6.6-15.1-8.5-4.6-1.3-9.8-2.2-14.2-2.2h-1.7c-16.2 0-28 11.4-28 27 0 9.3 6.8 17.4 12.9 20.8 4.3 2.4 10.6 4.6 16.8 6.8 3.2 1.1 6.2 2.2 8.5 3 3.2 1.3 4.6 3.4 4.5 6.3-.3 3.7-5 6.3-10.2 6.3h-1.3c-5.8 0-11.4-1.2-16.1-4.2-2-1.3-3-2-3-2L18.8 40.3l.4.4c2.3 2.3 5.3 4.5 8.6 6.3 8.3 4.6 18.5 5.7 25 5.7h3c5.2-.4 9.3-1.9 13.7-3.9 8.8-4.7 14.4-12.9 14.8-21.8v-1.9C84.1 13.7 77.8 4.6 67.1.3"/></g></g></g></svg>